<svg height="512pt" viewBox="0 -8 512.00066 512" width="512pt" xmlns="http://www.w3.org/2000/svg"><path d="m496.988281 248.492188c0 133.09375-107.894531 240.988281-240.988281 240.988281-133.097656 0-240.992188-107.894531-240.992188-240.988281s107.894532-240.988282 240.992188-240.988282c133.09375 0 240.988281 107.894532 240.988281 240.988282zm0 0" fill="#de8957"/><path d="m45.023438 248.492188c0-128.050782 99.878906-232.757813 225.980468-240.511719-4.964844-.304688-9.964844-.476563-15.003906-.476563-133.097656 0-240.992188 107.894532-240.992188 240.988282s107.894532 240.988281 240.992188 240.988281c5.039062 0 10.039062-.171875 15.003906-.476563-126.101562-7.75-225.980468-112.457031-225.980468-240.511718zm0 0" fill="#c76d33"/><path d="m256.5625 291.667969 208.226562 66.976562v44.914063s-21.78125 34.859375-65.429687 34.859375-72.246094-24.082031-143.359375-24.082031c-71.117188 0-99.714844 24.082031-143.363281 24.082031-43.648438 0-65.429688-34.859375-65.429688-34.859375v-47.171875zm0 0" fill="#5f7080"/><path d="m322.84375 193.425781c-12.113281-10.703125-26.699219-18.222656-42.386719-22.117187-16.0625-3.984375-32.855469-3.984375-48.917969 0-15.683593 3.894531-30.273437 11.414062-42.382812 22.117187-42.355469 37.425781-63.714844 12.917969-76.855469 69.933594h287.394531c-13.136718-57.015625-34.5-32.507813-76.851562-69.933594zm0 0" fill="#5f7080"/><path d="m455.277344 404.488281c-12.519532 0-25.039063-4.734375-34.65625-14.222656-33.988282-33.542969-97.070313-54.382813-164.621094-54.382813s-130.632812 20.835938-164.625 54.378907c-19.394531 19.144531-50.632812 18.9375-69.773438-.460938-19.140624-19.394531-18.933593-50.636719.464844-69.773437 52.550782-51.859375 140.003906-82.824219 233.933594-82.824219s181.382812 30.964844 233.9375 82.828125c19.390625 19.140625 19.601562 50.378906.457031 69.773438-9.648437 9.78125-22.382812 14.683593-35.117187 14.683593zm0 0" fill="#77889a"/><path d="m105.820312 224.503906h-19.996093c-4.144531 0-7.503907-3.359375-7.503907-7.503906s3.359376-7.503906 7.503907-7.503906h19.996093c4.144532 0 7.503907 3.359375 7.503907 7.503906s-3.359375 7.503906-7.503907 7.503906zm0 0" fill="#ffbfc5"/><path d="m426.171875 224.503906h-19.996094c-4.144531 0-7.503906-3.359375-7.503906-7.503906s3.359375-7.503906 7.503906-7.503906h19.996094c4.144531 0 7.503906 3.359375 7.503906 7.503906s-3.359375 7.503906-7.503906 7.503906zm0 0" fill="#ffbfc5"/><path d="m396.453125 197.640625v-20.246094c0-4.144531-3.363281-7.503906-7.503906-7.503906-4.144531 0-7.503907 3.359375-7.503907 7.503906v20.246094c0 4.144531 3.359376 7.503906 7.503907 7.503906 4.140625 0 7.503906-3.359375 7.503906-7.503906zm0 0"/><path d="m130.796875 197.640625v-20.246094c0-4.144531-3.359375-7.503906-7.5-7.503906-4.144531 0-7.503906 3.359375-7.503906 7.503906v20.246094c0 4.144531 3.359375 7.503906 7.503906 7.503906 4.140625 0 7.5-3.359375 7.5-7.503906zm0 0"/><path d="m216.035156 291.789062c-3.671875 3.671876-3.671875 9.625 0 13.296876 3.671875 3.671874 14.363282 8.410156 18.035156 4.738281 3.671876-3.671875-1.066406-14.363281-4.738281-18.035157-3.671875-3.671874-9.625-3.671874-13.296875 0zm0 0"/><path d="m282.90625 291.789062c-3.667969 3.671876-8.410156 14.363282-4.738281 18.035157s14.367187-1.066407 18.039062-4.738281c3.671875-3.671876 3.671875-9.625 0-13.296876-3.671875-3.671874-9.628906-3.671874-13.300781 0zm0 0"/><path d="m504.613281 248.492188c0-66.375-25.847656-128.777344-72.78125-175.710938-46.933593-46.933594-109.335937-72.78125-175.710937-72.78125-59.644532 0-117.316406 21.453125-162.390625 60.402344-3.136719 2.710937-3.480469 7.449218-.773438 10.582031 2.710938 3.136719 7.449219 3.484375 10.585938.773437 42.347656-36.597656 96.535156-56.75 152.578125-56.75 62.363281 0 121 24.285157 165.097656 68.386719 44.097656 44.097657 68.386719 102.734375 68.386719 165.097657 0 18.609374-2.195313 37.058593-6.535157 55.015624-21.609374-18.367187-47.695312-33.757812-76.859374-45.640624-8.480469-33.546876-20.851563-39.976563-39.949219-47.457032-10.730469-4.203125-22.894531-8.96875-38.328125-22.605468-12.839844-11.347657-28.589844-19.570313-45.546875-23.777344-17.167969-4.261719-35.363281-4.261719-52.53125 0-16.957031 4.207031-32.707031 12.429687-45.546875 23.777344-15.433594 13.636718-27.59375 18.402343-38.324219 22.605468-19.101563 7.480469-31.46875 13.917969-39.949219 47.457032-29.164062 11.882812-55.253906 27.273437-76.863281 45.640624-4.339844-17.957031-6.535156-36.40625-6.535156-55.015624 0-58.019532 21.425781-113.644532 60.335937-156.628907 2.78125-3.070312 2.542969-7.816406-.527344-10.597656-3.074218-2.78125-7.820312-2.542969-10.601562.527344-41.410156 45.75-64.214844 104.953125-64.214844 166.699219 0 22.546874 3.03125 44.886718 9.011719 66.480468-10.628906 10.628906-16.539063 24.746094-16.640625 39.792969-.101562 15.183594 5.71875 29.496094 16.382812 40.304687 7.394532 7.496094 16.507813 12.675782 26.464844 15.183594 6.03125 8.203125 26.464844 32.070313 61.890625 35.292969 43.722657 33.652344 96.007813 51.4375 151.382813 51.4375s107.660156-17.785156 151.382812-51.4375c35.40625-3.222656 55.84375-27.070313 61.878906-35.277344 9.957032-2.503906 19.070313-7.6875 26.476563-15.191406 21.640625-21.929687 21.488281-58.355469-.261719-80.105469 5.984375-21.59375 9.015625-43.933594 9.015625-66.480468zm-381.03125 2.769531c6.394531-18.464844 14.347657-21.582031 27.875-26.882813 11.296875-4.425781 25.363281-9.933594 42.789063-25.332031 11.039062-9.753906 24.601562-16.828125 39.222656-20.457031 14.808594-3.675782 30.5-3.675782 45.304688 0 14.621093 3.628906 28.183593 10.703125 39.222656 20.457031 17.425781 15.398437 31.492187 20.90625 42.792968 25.332031 13.523438 5.300782 21.476563 8.414063 27.871094 26.882813-42.523437-14.699219-87.589844-21.5625-132.539062-21.5625-44.671875 0-90.078125 6.886719-132.539063 21.5625zm132.539063 230.714843c-45.539063 0-88.855469-12.789062-126.496094-37.175781.175781-.023437.347656-.054687.523438-.078125 12.933593-1.738281 25.507812-5.300781 38.03125-8.859375.109374-.027343.21875-.058593.328124-.089843 28.789063-8.246094 57.554688-13.9375 87.613282-13.9375 38.824218 0 64.742187 7.40625 87.609375 13.9375 12.644531 3.605468 25.320312 7.199218 38.375 8.949218.171875.023438.339843.054688.507812.074219-37.636719 24.390625-80.953125 37.179687-126.492187 37.179687zm229.058594-97.441406c-16.023438 16.234375-42.953126 16.386719-59.164063.390625-12.070313-11.914062-26.433594-21.3125-41.570313-28.859375-2.910156-1.449218-6.511718-.828125-8.765624 1.523438-3.441407 3.589844-2.386719 9.6875 2.070312 11.910156 15.109375 7.527344 27.800781 16.3125 37.726562 26.105469 8.71875 8.601562 20.445313 14.386719 32.691407 15.929687-8.867188 8.210938-23.421875 17.835938-43.753907 19.203125-.0625.003907-.121093-.003906-.183593 0-19.078125 1.265625-38.101563-4.175781-56.375-9.398437-23.8125-6.800782-50.804688-14.511719-91.734375-14.511719-40.925782 0-67.917969 7.710937-91.734375 14.511719-18.285157 5.222656-37.148438 10.652344-56.371094 9.398437-.0625-.003906-.121094.003907-.183594 0-20.339843-1.367187-34.898437-11.003906-43.765625-19.214843.046875-.007813.097656-.015626.148438-.023438 12.230468-1.566406 23.785156-7.242188 32.554687-15.898438 32.640625-32.210937 93.703125-52.21875 159.351563-52.21875 32.050781 0 64.382812 4.632813 94.761718 14.996094 3.875 1.320313 8.203126-.800781 9.527344-4.679687 1.335938-3.921875-.757812-8.1875-4.679687-9.523438-30.304688-10.335937-64.75-15.800781-99.609375-15.800781-69.449219 0-134.546875 21.667969-169.890625 56.542969-14.742188 14.546875-39.019531 15.796875-55.304688 3.050781-19.523437-15.28125-21.035156-45.269531-3.464843-62.601562 28.070312-27.699219 63.816406-46.996094 100.847656-59.835938 40.953125-14.195312 84.519531-20.828125 127.8125-20.828125 43.3125 0 86.8125 6.636719 127.789062 20.820313 38.621094 13.386718 72.445313 32.828124 98.074219 57.171874 17.558594 16.675782 20.988281 43.8125 3.195313 61.839844zm0 0"/></svg>